<mxfile host="Electron" modified="2023-09-30T15:03:40.378Z" agent="Mozilla/5.0 (X11; Linux x86_64) AppleWebKit/537.36 (KHTML, like Gecko) draw.io/22.0.0 Chrome/114.0.5735.289 Electron/25.8.3 Safari/537.36" etag="v259lPCrMrDHI50H_lDw" version="22.0.0" type="device">
  <diagram id="WzgHRxW3obHOLDSEwUFS" name="Page-1">
    <mxGraphModel dx="733" dy="459" grid="1" gridSize="10" guides="1" tooltips="1" connect="1" arrows="1" fold="1" page="1" pageScale="1" pageWidth="850" pageHeight="1100" math="0" shadow="0">
      <root>
        <mxCell id="0" />
        <mxCell id="1" parent="0" />
        <mxCell id="ROLl3-lBn_NiGRetbUQz-30" value="" style="ellipse;shape=cloud;whiteSpace=wrap;html=1;fontSize=10;gradientDirection=west;" parent="1" vertex="1">
          <mxGeometry x="257.5" y="372.5" width="85" height="65" as="geometry" />
        </mxCell>
        <mxCell id="ROLl3-lBn_NiGRetbUQz-28" value="" style="ellipse;shape=cloud;whiteSpace=wrap;html=1;fontSize=10;gradientDirection=west;" parent="1" vertex="1">
          <mxGeometry x="500" y="187" width="100" height="80" as="geometry" />
        </mxCell>
        <mxCell id="ROLl3-lBn_NiGRetbUQz-27" value="" style="ellipse;shape=cloud;whiteSpace=wrap;html=1;fontSize=10;gradientDirection=west;" parent="1" vertex="1">
          <mxGeometry x="430" y="290" width="120" height="80" as="geometry" />
        </mxCell>
        <mxCell id="ROLl3-lBn_NiGRetbUQz-24" value="" style="ellipse;shape=cloud;whiteSpace=wrap;html=1;fontSize=10;gradientDirection=west;" parent="1" vertex="1">
          <mxGeometry x="115" y="166" width="120" height="80" as="geometry" />
        </mxCell>
        <mxCell id="ROLl3-lBn_NiGRetbUQz-22" value="" style="ellipse;shape=cloud;whiteSpace=wrap;html=1;fontSize=10;gradientDirection=west;" parent="1" vertex="1">
          <mxGeometry x="190" y="265" width="100" height="80" as="geometry" />
        </mxCell>
        <mxCell id="ROLl3-lBn_NiGRetbUQz-3" value="" style="curved=1;endArrow=classic;html=1;rounded=0;" parent="1" edge="1">
          <mxGeometry width="50" height="50" relative="1" as="geometry">
            <mxPoint x="280" y="280" as="sourcePoint" />
            <mxPoint x="640" y="200" as="targetPoint" />
            <Array as="points">
              <mxPoint x="440" y="640" />
            </Array>
          </mxGeometry>
        </mxCell>
        <mxCell id="ROLl3-lBn_NiGRetbUQz-4" value="" style="endArrow=none;html=1;rounded=0;" parent="1" edge="1">
          <mxGeometry width="50" height="50" relative="1" as="geometry">
            <mxPoint x="120" y="240" as="sourcePoint" />
            <mxPoint x="280" y="280" as="targetPoint" />
          </mxGeometry>
        </mxCell>
        <mxCell id="ROLl3-lBn_NiGRetbUQz-5" value="" style="endArrow=classic;html=1;rounded=0;" parent="1" edge="1">
          <mxGeometry width="50" height="50" relative="1" as="geometry">
            <mxPoint x="120" y="460" as="sourcePoint" />
            <mxPoint x="120" y="160" as="targetPoint" />
          </mxGeometry>
        </mxCell>
        <mxCell id="ROLl3-lBn_NiGRetbUQz-6" value="" style="endArrow=classic;html=1;rounded=0;" parent="1" edge="1">
          <mxGeometry width="50" height="50" relative="1" as="geometry">
            <mxPoint x="120" y="460" as="sourcePoint" />
            <mxPoint x="680" y="460" as="targetPoint" />
          </mxGeometry>
        </mxCell>
        <mxCell id="ROLl3-lBn_NiGRetbUQz-7" value="Progress" style="text;html=1;strokeColor=none;fillColor=none;align=center;verticalAlign=middle;whiteSpace=wrap;rounded=0;" parent="1" vertex="1">
          <mxGeometry x="130" y="450" width="60" height="30" as="geometry" />
        </mxCell>
        <mxCell id="ROLl3-lBn_NiGRetbUQz-9" value="Motivation" style="text;html=1;strokeColor=none;fillColor=none;align=center;verticalAlign=middle;whiteSpace=wrap;rounded=0;rotation=270;" parent="1" vertex="1">
          <mxGeometry x="80" y="407.5" width="60" height="30" as="geometry" />
        </mxCell>
        <mxCell id="ROLl3-lBn_NiGRetbUQz-10" value="" style="endArrow=none;dashed=1;html=1;rounded=0;" parent="1" edge="1">
          <mxGeometry width="50" height="50" relative="1" as="geometry">
            <mxPoint x="640" y="460" as="sourcePoint" />
            <mxPoint x="640" y="200" as="targetPoint" />
          </mxGeometry>
        </mxCell>
        <mxCell id="ROLl3-lBn_NiGRetbUQz-11" value="100%" style="text;html=1;strokeColor=none;fillColor=none;align=center;verticalAlign=middle;whiteSpace=wrap;rounded=0;" parent="1" vertex="1">
          <mxGeometry x="610" y="460" width="60" height="30" as="geometry" />
        </mxCell>
        <mxCell id="ROLl3-lBn_NiGRetbUQz-14" value="Pit of despair" style="text;html=1;strokeColor=none;fillColor=none;align=center;verticalAlign=middle;whiteSpace=wrap;rounded=0;" parent="1" vertex="1">
          <mxGeometry x="410" y="405" width="60" height="30" as="geometry" />
        </mxCell>
        <mxCell id="ROLl3-lBn_NiGRetbUQz-16" value="" style="shape=curlyBracket;whiteSpace=wrap;html=1;rounded=1;flipH=1;fillColor=#F80C0C;gradientColor=#ffffff;gradientDirection=west;size=0.5;rotation=37;" parent="1" vertex="1">
          <mxGeometry x="540" y="320" width="20" height="120" as="geometry" />
        </mxCell>
        <mxCell id="ROLl3-lBn_NiGRetbUQz-17" value="Persistance" style="text;html=1;align=center;verticalAlign=middle;resizable=0;points=[];autosize=1;strokeColor=none;fillColor=none;" parent="1" vertex="1">
          <mxGeometry x="555" y="375" width="90" height="30" as="geometry" />
        </mxCell>
        <mxCell id="ROLl3-lBn_NiGRetbUQz-19" value="&lt;font style=&quot;font-size: 10px&quot;&gt;Best idea ever&lt;/font&gt;" style="text;html=1;strokeColor=none;fillColor=none;align=center;verticalAlign=middle;whiteSpace=wrap;rounded=0;" parent="1" vertex="1">
          <mxGeometry x="130" y="200" width="90" height="12" as="geometry" />
        </mxCell>
        <mxCell id="ROLl3-lBn_NiGRetbUQz-20" value="&lt;font style=&quot;font-size: 10px&quot;&gt;This&#39;s harder than I thought&lt;/font&gt;" style="text;html=1;strokeColor=none;fillColor=none;align=center;verticalAlign=middle;whiteSpace=wrap;rounded=0;" parent="1" vertex="1">
          <mxGeometry x="210" y="290" width="60" height="30" as="geometry" />
        </mxCell>
        <mxCell id="ROLl3-lBn_NiGRetbUQz-21" value="I&#39;m not capable" style="text;html=1;strokeColor=none;fillColor=none;align=center;verticalAlign=middle;whiteSpace=wrap;rounded=0;fontSize=10;" parent="1" vertex="1">
          <mxGeometry x="270" y="390" width="60" height="30" as="geometry" />
        </mxCell>
        <mxCell id="ROLl3-lBn_NiGRetbUQz-25" value="Maybe I can" style="text;html=1;strokeColor=none;fillColor=none;align=center;verticalAlign=middle;whiteSpace=wrap;rounded=0;fontSize=10;" parent="1" vertex="1">
          <mxGeometry x="460" y="320" width="60" height="30" as="geometry" />
        </mxCell>
        <mxCell id="ROLl3-lBn_NiGRetbUQz-26" value="Made it!" style="text;html=1;strokeColor=none;fillColor=none;align=center;verticalAlign=middle;whiteSpace=wrap;rounded=0;fontSize=10;" parent="1" vertex="1">
          <mxGeometry x="520" y="212" width="60" height="30" as="geometry" />
        </mxCell>
      </root>
    </mxGraphModel>
  </diagram>
</mxfile>
